<svg width="310" height="120" viewBox="0 0 310 120" fill="none" xmlns="http://www.w3.org/2000/svg">
<path d="M287 0.5C299.426 0.500004 309.5 10.5736 309.5 23V119.5H0.5V0.5H287Z" stroke="black"/>
<rect x="174" y="20" width="32" height="80" fill="black"/>
<path d="M27 42C27 29.8497 36.8497 20 49 20H59V100H27V42Z" fill="black"/>
<path d="M65 20H75C87.1503 20 97 29.8497 97 42V63C97 75.1503 87.1503 85 75 85H65V20Z" fill="black"/>
<path d="M114.564 55.8703C107.515 45.9743 109.822 32.2371 119.718 25.1875L127 19.9999L158.437 64.1295C165.486 74.0256 163.179 87.7628 153.283 94.8124L146 99.9999L114.564 55.8703Z" fill="black"/>
<rect x="212" y="20" width="32" height="80" fill="black"/>
<path d="M250 20H260C272.15 20 282 29.8497 282 42V100H250V20Z" fill="black"/>
<path d="M159 20H132L159 55V20Z" fill="#FF2825"/>
<path d="M113 100H140L113 65V100Z" fill="black"/>
</svg>
