<svg width="205" height="205" viewBox="0 0 205 205" fill="none" xmlns="http://www.w3.org/2000/svg">
<g clip-path="url(#clip0_45_66)">
<mask id="mask0_45_66" style="mask-type:luminance" maskUnits="userSpaceOnUse" x="0" y="0" width="205" height="205">
<path d="M155.303 0H49.697C22.2501 0 0 22.2501 0 49.697V155.303C0 182.75 22.2501 205 49.697 205H155.303C182.75 205 205 182.75 205 155.303V49.697C205 22.2501 182.75 0 155.303 0Z" fill="white"/>
</mask>
<g mask="url(#mask0_45_66)">
<path d="M126.628 97.8199H66.0639V73.8539H126.628C130.166 73.8539 132.626 74.4706 133.86 75.5473C135.095 76.6242 135.859 78.6214 135.859 81.5389V90.1442C135.859 93.2182 135.095 95.2154 133.86 96.2922C132.626 97.3689 130.166 97.8293 126.628 97.8293V97.8199ZM130.783 51.2592H40.3789V153.75H66.0639V120.406H113.399L135.859 153.75H164.621L139.858 120.249C148.987 118.896 153.087 116.098 156.468 111.487C159.849 106.876 161.545 99.5042 161.545 89.6656V81.9807C161.545 76.1455 160.927 71.5346 159.849 68.0005C158.771 64.4663 156.929 61.3924 154.312 58.6312C151.549 56.0175 148.472 54.1767 144.777 52.9434C141.083 51.8667 136.467 51.25 130.783 51.25V51.2592Z" fill="#383D38"/>
<path d="M307.5 4.40569e-05C307.5 56.6092 261.61 102.5 205 102.5C193.49 102.5 182.425 100.603 172.098 97.1049C172.318 94.6691 172.416 92.1787 172.416 89.6656V81.9807C172.416 75.4555 171.734 69.7037 170.248 64.8291C168.644 59.5724 165.895 55.0484 162.203 51.1537L161.998 50.9375L161.782 50.7328C157.85 47.0135 153.392 44.3584 148.22 42.6316L148.021 42.5653L147.819 42.5066C142.896 41.0714 137.211 40.3788 130.783 40.3788H119.912V40.3879H110.764C105.445 27.9945 102.5 14.3412 102.5 4.40569e-05C102.5 -56.6092 148.391 -102.5 205 -102.5C261.61 -102.5 307.5 -56.6092 307.5 4.40569e-05Z" fill="#383D38"/>
</g>
<path d="M155.303 1.55322H49.6972C23.108 1.55322 1.55322 23.108 1.55322 49.6972V155.303C1.55322 181.892 23.108 203.447 49.6972 203.447H155.303C181.892 203.447 203.447 181.892 203.447 155.303V49.6972C203.447 23.108 181.892 1.55322 155.303 1.55322Z" stroke="#383D38" stroke-width="2"/>
<path d="M102.94 204.49H102.49C46.2532 204.49 0.5 158.723 0.5 102.47V102.02C0.5 45.7666 46.2532 0 102.49 0H102.94C159.176 0 204.929 45.7666 204.929 102.02V102.47C204.929 158.723 159.176 204.49 102.94 204.49ZM102.49 6.92176C50.066 6.92176 7.41972 49.5805 7.41972 102.02V102.47C7.41972 154.909 50.066 197.568 102.49 197.568H102.94C155.363 197.568 198.01 154.909 198.01 102.47V102.02C198.01 49.5805 155.363 6.92176 102.94 6.92176H102.49Z" fill="#383D38"/>
</g>
<defs>
<clipPath id="clip0_45_66">
<rect width="205" height="205" rx="102.5" fill="white"/>
</clipPath>
</defs>
</svg>
