<svg width="205" height="205" viewBox="0 0 205 205" fill="none" xmlns="http://www.w3.org/2000/svg">
<g clip-path="url(#clip0_46_96)">
<path d="M102.44 204.49H101.99C45.7531 204.49 0 158.723 0 102.47V102.02C0 45.7666 45.7531 0 101.99 0H102.44C158.676 0 204.429 45.7666 204.429 102.02V102.47C204.429 158.723 158.676 204.49 102.44 204.49ZM101.99 6.92176C49.5659 6.92176 6.91972 49.5805 6.91972 102.02V102.47C6.91972 154.909 49.5659 197.568 101.99 197.568H102.44C154.863 197.568 197.51 154.909 197.51 102.47V102.02C197.51 49.5805 154.863 6.92176 102.44 6.92176H101.99Z" fill="#383D38"/>
<path d="M40.8677 98.8703C41.1445 98.7319 41.4214 98.6003 41.6913 98.4757C46.3828 96.3023 51.1367 94.2673 55.8836 92.2323C56.1397 92.2323 56.5686 91.9346 56.8108 91.8377C57.1775 91.6785 57.5443 91.5262 57.9111 91.367C58.6169 91.0625 59.3227 90.7648 60.0216 90.4602C61.4332 89.8581 62.8378 89.256 64.2495 88.6538C67.0658 87.4494 69.8821 86.245 72.6984 85.0337C78.3311 82.6249 83.9708 80.2091 89.6034 77.8003C95.2361 75.3915 100.876 72.9759 106.508 70.5671C112.141 68.1583 117.78 65.7427 123.413 63.3339C129.046 60.9251 134.685 58.5095 140.318 56.1007C141.571 55.5608 142.927 54.7579 144.269 54.5225C145.397 54.3218 146.497 53.9342 147.632 53.7196C149.784 53.3113 152.158 53.1451 154.22 54.038C154.932 54.3495 155.59 54.7855 156.137 55.3323C158.752 57.921 158.385 62.1711 157.832 65.8119C153.978 91.1871 150.123 116.569 146.262 141.944C145.736 145.426 145.016 149.247 142.269 151.448C139.944 153.31 136.637 153.517 133.765 152.728C130.893 151.932 128.361 150.264 125.877 148.624C115.573 141.799 105.263 134.974 94.9593 128.149C92.5097 126.53 89.7834 124.412 89.8111 121.47C89.8249 119.698 90.8835 118.12 91.963 116.714C100.917 105.031 113.836 97.0014 123.448 85.8573C124.804 84.2861 125.87 81.4482 124.008 80.5415C122.901 80.0016 121.628 80.7351 120.618 81.4342C107.913 90.2595 95.2153 99.0917 82.5107 107.917C78.3658 110.796 74.0202 113.759 69.0242 114.465C64.554 115.102 60.0562 113.856 55.7314 112.582C52.1055 111.516 48.4863 110.423 44.8812 109.294C42.9644 108.699 40.9854 108.055 39.5045 106.706C38.0237 105.356 37.1727 103.086 38.0653 101.286C38.6258 100.158 39.7123 99.4448 40.854 98.8634L40.8677 98.8703Z" fill="#383D38"/>
</g>
<defs>
<clipPath id="clip0_46_96">
<rect width="205" height="205" fill="white"/>
</clipPath>
</defs>
</svg>
