<svg width="205" height="205" viewBox="0 0 205 205" fill="none" xmlns="http://www.w3.org/2000/svg">
<g clip-path="url(#clip0_46_79)">
<g clip-path="url(#clip1_46_79)">
<path d="M18.5477 18.5476L15.0797 15.1124L15.1208 15.0719L18.5477 18.5476ZM18.5477 186.452L15.1124 189.92L15.0719 189.879L18.5477 186.452ZM186.452 186.452L189.921 189.888L189.88 189.929L186.452 186.452ZM186.452 18.5476L189.888 15.0797L189.929 15.1208L186.452 18.5476ZM37.8111 64.2984L32.9312 64.3985C32.9043 63.0869 33.4065 61.8197 34.3246 60.8827C35.2427 59.9455 36.4992 59.4175 37.8111 59.4175V64.2984ZM111.351 145.518H116.232C116.232 148.213 114.046 150.399 111.351 150.399V145.518ZM111.351 116.492H106.47C106.47 115.113 107.053 113.799 108.075 112.874C109.097 111.949 110.463 111.499 111.835 111.635L111.351 116.492ZM144.997 145.518V150.399C142.875 150.399 140.997 149.028 140.35 147.007L144.997 145.518ZM168.1 145.518L172.812 144.244C173.208 145.71 172.9 147.278 171.976 148.484C171.052 149.691 169.62 150.399 168.1 150.399V145.518ZM134.714 104.777L132.539 109.148C130.949 108.355 129.913 106.761 129.838 104.985C129.762 103.21 130.658 101.534 132.176 100.609L134.714 104.777ZM163.219 64.2333V59.3524C164.685 59.3524 166.073 60.0113 167.001 61.1471C167.928 62.2828 168.295 63.7751 168.001 65.2114L163.219 64.2333ZM142.264 64.2333L137.567 62.9075C138.16 60.8046 140.078 59.3524 142.264 59.3524V64.2333ZM111.351 96.3822L111.868 101.236C110.492 101.383 109.117 100.938 108.088 100.013C107.058 99.0863 106.47 97.7674 106.47 96.3822H111.351ZM111.351 64.2984V59.4175C114.046 59.4175 116.232 61.6028 116.232 64.2984H111.351ZM90.3306 64.2984H85.4496C85.4496 61.6028 87.6343 59.4175 90.3306 59.4175V64.2984ZM90.3306 120.527H95.2115C95.2115 122.03 94.5184 123.449 93.3343 124.374C92.1492 125.299 90.6049 125.627 89.1465 125.262L90.3306 120.527ZM60.1985 64.2984V59.4175C62.8576 59.4175 65.0274 61.546 65.0785 64.2045L60.1985 64.2984ZM1.35619e-06 98.5952C1.35619e-06 76.6381 -0.0102488 59.6897 1.75149 46.5269C3.53196 33.2239 7.20108 23.0661 15.0797 15.1124L22.0153 21.9825C16.2273 27.8256 13.0633 35.5976 11.4271 47.8219C9.77217 60.1865 9.76192 76.3635 9.76192 98.5952H1.35619e-06ZM1.35619e-06 106.405V98.5952H9.76192V106.405H1.35619e-06ZM15.0719 189.879C7.20088 181.896 3.53206 171.728 1.75149 158.424C-0.0102488 145.262 1.35619e-06 128.33 1.35619e-06 106.405H9.76192C9.76192 128.603 9.77217 144.764 11.4271 157.13C13.0631 169.352 16.2277 177.147 22.0234 183.026L15.0719 189.879ZM98.595 205C76.6382 205 59.6898 205.011 46.527 203.249C33.2238 201.468 23.0662 197.799 15.1124 189.92L21.9826 182.985C27.8257 188.773 35.5976 191.937 47.822 193.573C60.1866 195.227 76.3636 195.238 98.595 195.238V205ZM106.405 205H98.595V195.238H106.405V205ZM189.88 189.929C181.896 197.8 171.728 201.468 158.425 203.249C145.262 205.011 128.33 205 106.405 205V195.238C128.604 195.238 144.765 195.227 157.129 193.573C169.353 191.937 177.147 188.772 183.026 182.976L189.88 189.929ZM205 106.405C205 128.362 205.011 145.311 203.249 158.473C201.468 171.776 197.8 181.934 189.921 189.888L182.985 183.017C188.773 177.175 191.938 169.402 193.574 157.178C195.228 144.813 195.238 128.637 195.238 106.405H205ZM205 98.5952V106.405H195.238V98.5952H205ZM189.929 15.1208C197.8 23.1043 201.468 33.2719 203.249 46.5757C205.011 59.7384 205 76.6704 205 98.5952H195.238C195.238 76.3963 195.228 60.2354 193.574 47.8707C191.938 35.6472 188.773 27.8529 182.977 21.9744L189.929 15.1208ZM106.405 1.35619e-06C128.362 1.35619e-06 145.311 -0.0102488 158.474 1.75148C171.776 3.53196 181.934 7.20097 189.888 15.0797L183.018 22.0152C177.175 16.2273 169.403 13.0633 157.178 11.4271C144.814 9.77215 128.636 9.76191 106.405 9.76191V1.35619e-06ZM98.595 1.35619e-06H106.405V9.76191H98.595V1.35619e-06ZM15.1208 15.0719C23.1043 7.20087 33.272 3.53215 46.5758 1.75148C59.7385 -0.0102488 76.6705 1.35619e-06 98.595 1.35619e-06V9.76191C76.3964 9.76191 60.2355 9.77215 47.8708 11.4271C35.6472 13.0631 27.8529 16.2277 21.9745 22.0233L15.1208 15.0719ZM108.747 150.399C85.2973 150.399 66.3862 142.327 53.2809 127.131C40.2727 112.049 33.4669 90.5114 32.9312 64.3985L42.6911 64.1983C43.1967 88.847 49.6019 107.919 60.6732 120.756C71.6473 133.479 87.6841 140.637 108.747 140.637V150.399ZM108.813 150.399H108.747V140.637H108.813V150.399ZM111.351 150.399H108.813V140.637H111.351V150.399ZM116.232 116.492V145.518H106.47V116.492H116.232ZM140.35 147.007C135.879 133.066 124.909 122.747 110.867 121.349L111.835 111.635C130.462 113.491 144.223 127.12 149.645 144.027L140.35 147.007ZM168.1 150.399H144.997V140.637H168.1V150.399ZM159.55 118.474C165.742 126.03 170.262 134.813 172.812 144.244L163.389 146.792C161.199 138.693 157.318 131.15 152 124.662L159.55 118.474ZM136.889 100.408C145.635 104.761 153.358 110.919 159.55 118.474L152 124.662C146.682 118.174 140.05 112.886 132.539 109.148L136.889 100.408ZM157.186 90.284C151.895 97.8094 145.11 104.162 137.253 108.947L132.176 100.609C138.886 96.5228 144.681 91.0961 149.2 84.6699L157.186 90.284ZM168.001 65.2114C166.158 74.2235 162.476 82.7588 157.186 90.284L149.2 84.6699C153.719 78.2424 156.863 70.9525 158.438 63.2554L168.001 65.2114ZM142.264 59.3524H163.219V69.1143H142.264V59.3524ZM110.834 91.5296C115.68 91.0122 121.269 87.8532 126.368 82.4862C131.402 77.1866 135.513 70.1821 137.567 62.9075L146.961 65.5592C144.458 74.4242 139.524 82.811 133.446 89.2092C127.432 95.5398 119.843 100.386 111.868 101.236L110.834 91.5296ZM116.232 64.2984V96.3822H106.47V64.2984H116.232ZM90.3306 59.4175H111.351V69.1794H90.3306V59.4175ZM85.4496 120.527V64.2984H95.2115V120.527H85.4496ZM65.0785 64.2045C65.7685 100.085 81.3696 113.256 91.5137 115.792L89.1465 125.262C73.2592 121.291 56.0602 102.963 55.3185 64.3923L65.0785 64.2045ZM37.8111 59.4175H60.1985V69.1794H37.8111V59.4175Z" fill="#383D38"/>
</g>
<path d="M103.44 204.49H102.99C46.7532 204.49 1 158.723 1 102.47V102.02C1 45.7666 46.7532 0 102.99 0H103.44C159.676 0 205.429 45.7666 205.429 102.02V102.47C205.429 158.723 159.676 204.49 103.44 204.49ZM102.99 6.92176C50.566 6.92176 7.91972 49.5805 7.91972 102.02V102.47C7.91972 154.909 50.566 197.568 102.99 197.568H103.44C155.863 197.568 198.51 154.909 198.51 102.47V102.02C198.51 49.5805 155.863 6.92176 103.44 6.92176H102.99Z" fill="#383D38"/>
</g>
<defs>
<clipPath id="clip0_46_79">
<rect width="205" height="205" fill="white"/>
</clipPath>
<clipPath id="clip1_46_79">
<rect width="151" height="151" fill="white" transform="translate(27 27)"/>
</clipPath>
</defs>
</svg>
