<svg width="205" height="205" viewBox="0 0 205 205" fill="none" xmlns="http://www.w3.org/2000/svg">
<g clip-path="url(#clip0_46_90)">
<path d="M102.44 204.49H101.99C45.7532 204.49 0 158.723 0 102.47V102.02C0 45.7666 45.7532 0 101.99 0H102.44C158.676 0 204.429 45.7666 204.429 102.02V102.47C204.429 158.723 158.676 204.49 102.44 204.49ZM101.99 6.92176C49.566 6.92176 6.91972 49.5805 6.91972 102.02V102.47C6.91972 154.909 49.566 197.568 101.99 197.568H102.44C154.863 197.568 197.51 154.909 197.51 102.47V102.02C197.51 49.5805 154.863 6.92176 102.44 6.92176H101.99Z" fill="#383D38"/>
<path d="M121.469 131.14C96.191 131.14 75.6256 110.561 75.6187 85.276C75.6256 78.8664 80.8431 73.6543 87.2369 73.6543C87.8943 73.6543 88.5447 73.7097 89.1674 73.8204C90.5375 74.0488 91.8385 74.5126 93.0356 75.2117C93.2086 75.3155 93.3262 75.4818 93.3539 75.6756L96.0249 92.5161C96.0595 92.7168 95.9972 92.9107 95.8658 93.056C94.3919 94.6896 92.5097 95.8664 90.413 96.4547L89.4028 96.7384L89.7833 97.7143C93.2293 106.491 100.246 113.503 109.027 116.964L110.003 117.351L110.286 116.341C110.875 114.244 112.051 112.361 113.684 110.886C113.802 110.776 113.961 110.72 114.12 110.72C114.155 110.72 114.189 110.72 114.231 110.727L131.066 113.399C131.267 113.434 131.433 113.544 131.537 113.718C132.229 114.915 132.693 116.223 132.928 117.594C133.039 118.203 133.087 118.846 133.087 119.518C133.087 125.921 127.876 131.133 121.469 131.14Z" fill="#383D38"/>
<path d="M166.295 96.697C164.932 81.2891 157.873 66.9958 146.421 56.4539C134.9 45.8498 119.953 40.0078 104.322 40.0078C70.0136 40.0078 42.0995 67.9301 42.0995 102.248C42.0995 113.766 45.2756 124.986 51.2888 134.76L37.8784 164.454L80.8153 159.879C88.2817 162.938 96.184 164.489 104.315 164.489C106.453 164.489 108.646 164.378 110.847 164.15C112.784 163.942 114.743 163.637 116.666 163.25C145.397 157.442 166.371 131.936 166.537 102.58V102.248C166.537 100.379 166.454 98.5105 166.288 96.7039L166.295 96.697ZM82.4692 146.845L58.7138 149.379L65.8065 133.659L64.3879 131.756C64.2841 131.617 64.1803 131.479 64.0627 131.32C57.9042 122.813 54.6518 112.762 54.6518 102.255C54.6518 74.8588 76.9334 52.5707 104.322 52.5707C129.98 52.5707 151.729 72.5955 153.825 98.1575C153.936 99.5281 153.998 100.905 153.998 102.262C153.998 102.65 153.991 103.03 153.984 103.439C153.459 126.357 137.453 145.821 115.061 150.777C113.352 151.157 111.601 151.448 109.857 151.635C108.044 151.843 106.183 151.947 104.335 151.947C97.7548 151.947 91.361 150.673 85.3201 148.153C84.6489 147.883 83.9915 147.593 83.3756 147.295L82.4761 146.859L82.4692 146.845Z" fill="#383D38"/>
</g>
<defs>
<clipPath id="clip0_46_90">
<rect width="205" height="205" fill="white"/>
</clipPath>
</defs>
</svg>
